<?xml version="1.0" encoding="UTF-8" standalone="no"?>
<!-- Created with Inkscape (http://www.inkscape.org/) -->

<svg
   width="60mm"
   height="60mm"
   viewBox="0 0 60 60"
   version="1.1"
   id="svg5"
   inkscape:version="1.3.2 (091e20e, 2023-11-25, custom)"
   sodipodi:docname="face-sunglasses.svg"
   xmlns:inkscape="http://www.inkscape.org/namespaces/inkscape"
   xmlns:sodipodi="http://sodipodi.sourceforge.net/DTD/sodipodi-0.dtd"
   xmlns="http://www.w3.org/2000/svg"
   xmlns:svg="http://www.w3.org/2000/svg">
  <sodipodi:namedview
     id="namedview7"
     pagecolor="#ffffff"
     bordercolor="#000000"
     borderopacity="0.25"
     inkscape:showpageshadow="2"
     inkscape:pageopacity="0.0"
     inkscape:pagecheckerboard="0"
     inkscape:deskcolor="#d1d1d1"
     inkscape:document-units="mm"
     showgrid="false"
     inkscape:zoom="1.4912879"
     inkscape:cx="78.790958"
     inkscape:cy="43.251207"
     inkscape:window-width="1920"
     inkscape:window-height="1017"
     inkscape:window-x="-8"
     inkscape:window-y="-8"
     inkscape:window-maximized="1"
     inkscape:current-layer="layer1" />
  <defs
     id="defs2" />
  <g
     inkscape:label="Sunglasses"
     inkscape:groupmode="layer"
     id="layer1"
     style="display:inline"
     transform="translate(-75,-118.5)">
    <circle
       style="display:inline;fill:#fecf00;fill-opacity:1;stroke:#000000;stroke-width:4;stroke-dasharray:none;stroke-opacity:1"
       id="path234"
       cx="105"
       cy="148.5"
       r="28"
       inkscape:label="face" />
    <path
       id="path3192"
       style="fill:#000000;fill-opacity:1;stroke:none;stroke-width:2.91052;stroke-dasharray:none;stroke-opacity:1"
       d="m 117.86464,150.07973 a 16,9 0 0 1 -12.86485,3.65662 16,9 0 0 1 -12.864329,-3.65611 13,11 0 0 0 12.864329,9.41959 13,11 0 0 0 12.86485,-9.4201 z"
       inkscape:label="smile" />
    <g
       id="g2"
       inkscape:label="Lenses"
       transform="translate(0.1253925,-0.18351517)">
      <path
         id="rect1"
         style="stroke-width:0.15486"
         d="M 87.106153,133.20593 H 100.047 c 1.33457,0 2.40897,1.28434 2.40897,2.87969 v 1.26076 c 0,2.67642 -3.825259,7.65343 -11.299856,7.65343 h -0.280998 c -4.618827,0 -6.177931,-4.38652 -6.177931,-7.65343 v -1.26076 c 0,-1.59535 1.074399,-2.87969 2.408968,-2.87969 z"
         sodipodi:nodetypes="sssssssss"
         inkscape:label="Lens" />
      <path
         id="path2"
         style="stroke-width:0.15486"
         d="m 122.64306,133.20593 h -12.94084 c -1.33457,0 -2.40897,1.28434 -2.40897,2.87969 v 1.26076 c 0,2.67642 3.82526,7.65343 11.29985,7.65343 h 0.281 c 4.61883,0 6.17793,-4.38652 6.17793,-7.65343 v -1.26076 c 0,-1.59535 -1.0744,-2.87969 -2.40897,-2.87969 z"
         sodipodi:nodetypes="sssssssss"
         inkscape:label="Lens" />
    </g>
    <rect
       style="fill:#000000;fill-opacity:1;stroke-width:0.264583"
       id="rect2"
       width="10.379031"
       height="2.4838707"
       x="99.810486"
       y="134.15726"
       inkscape:label="Bridge" />
    <rect
       style="display:inline;fill:#000000;fill-opacity:1;stroke-width:0.277081"
       id="rect2-3"
       width="11.382667"
       height="2.4838707"
       x="-4.1911898"
       y="159.65936"
       transform="rotate(-30)"
       inkscape:label="LArm" />
    <rect
       style="display:inline;fill:#000000;fill-opacity:1;stroke-width:0.277081"
       id="rect3"
       width="11.382667"
       height="2.4838707"
       x="-186.05653"
       y="54.659355"
       transform="matrix(-0.8660254,-0.5,-0.5,0.8660254,0,0)"
       inkscape:label="RArm" />
  </g>
</svg>
